<?xml version="1.0" standalone="no"?>
<!DOCTYPE svg PUBLIC "-//W3C//DTD SVG 20010904//EN"
 "http://www.w3.org/TR/2001/REC-SVG-20010904/DTD/svg10.dtd">
<svg version="1.0" xmlns="http://www.w3.org/2000/svg"
 width="512.000000pt" height="512.000000pt" viewBox="0 0 512.000000 512.000000"
 preserveAspectRatio="xMidYMid meet">
<metadata>
Created by potrace 1.14, written by Peter Selinger 2001-2017
</metadata>
<g transform="translate(0.000000,512.000000) scale(0.100000,-0.100000)"
fill="#000000" stroke="none">
<path d="M2358 2567 c-285 -760 -518 -1386 -518 -1390 0 -4 72 -7 159 -7 142
0 160 2 166 18 4 9 235 627 515 1372 280 745 511 1363 515 1373 7 16 -5 17
-156 17 l-164 0 -517 -1383z"/>
<path d="M775 3219 l-770 -418 -2 -238 -3 -238 772 -420 c424 -231 777 -421
785 -423 11 -3 13 47 13 267 l0 271 -547 274 -548 274 225 109 c124 60 370
178 547 263 l323 155 0 273 c0 211 -3 272 -12 271 -7 -1 -359 -189 -783 -420z"/>
<path d="M3550 3372 l0 -269 293 -144 c160 -79 407 -201 547 -270 l255 -126
-547 -271 -548 -270 0 -271 c0 -149 4 -271 9 -271 4 0 356 190 782 423 l774
423 3 235 2 236 -771 419 c-424 230 -778 420 -785 422 -12 3 -14 -43 -14 -266z"/>
</g>
</svg>
